<svg xmlns="http://www.w3.org/2000/svg" xmlns:xlink="http://www.w3.org/1999/xlink" width="181" zoomAndPan="magnify" viewBox="0 0 135.75 35.25" height="47" preserveAspectRatio="xMidYMid meet" version="1.0"><defs><g/><clipPath id="60a02eacb0"><path d="M 124 10 L 134.214844 10 L 134.214844 25 L 124 25 Z M 124 10 " clip-rule="nonzero"/></clipPath><clipPath id="c26c643ff7"><path d="M 17 19 L 36 19 L 36 34.515625 L 17 34.515625 Z M 17 19 " clip-rule="nonzero"/></clipPath><clipPath id="698201397f"><path d="M 13 18 L 36 18 L 36 34.515625 L 13 34.515625 Z M 13 18 " clip-rule="nonzero"/></clipPath><clipPath id="16a6179527"><path d="M 1.292969 20 L 20 20 L 20 34.515625 L 1.292969 34.515625 Z M 1.292969 20 " clip-rule="nonzero"/></clipPath><clipPath id="5050d7ee67"><path d="M 1.292969 16 L 32 16 L 32 34.515625 L 1.292969 34.515625 Z M 1.292969 16 " clip-rule="nonzero"/></clipPath><clipPath id="aaffa1fd81"><path d="M 1.292969 0 L 36 0 L 36 34.515625 L 1.292969 34.515625 Z M 1.292969 0 " clip-rule="nonzero"/></clipPath><clipPath id="32024ad126"><path d="M 43.921875 0 L 134.214844 0 L 134.214844 34.515625 L 43.921875 34.515625 Z M 43.921875 0 " clip-rule="nonzero"/></clipPath><clipPath id="6a7eae9a8d"><path d="M 0.921875 0 L 91.214844 0 L 91.214844 34.515625 L 0.921875 34.515625 Z M 0.921875 0 " clip-rule="nonzero"/></clipPath><clipPath id="fa43ccc575"><rect x="0" width="92" y="0" height="35"/></clipPath></defs><path fill="#2c3c28" d="M 76.46875 24.96875 C 75.109375 24.96875 73.863281 24.65625 72.722656 24.027344 C 71.597656 23.402344 70.699219 22.53125 70.027344 21.414062 C 69.371094 20.285156 69.039062 19.015625 69.039062 17.613281 C 69.039062 16.210938 69.371094 14.953125 70.027344 13.835938 C 70.699219 12.71875 71.597656 11.847656 72.722656 11.222656 C 73.863281 10.59375 75.109375 10.28125 76.46875 10.28125 C 77.824219 10.28125 79.066406 10.59375 80.191406 11.222656 C 81.328125 11.847656 82.222656 12.71875 82.867188 13.835938 C 83.523438 14.953125 83.851562 16.210938 83.851562 17.613281 C 83.851562 19.015625 83.523438 20.285156 82.867188 21.414062 C 82.207031 22.53125 81.316406 23.402344 80.191406 24.027344 C 79.066406 24.65625 77.824219 24.96875 76.46875 24.96875 Z M 76.46875 21.78125 C 77.621094 21.78125 78.539062 21.402344 79.222656 20.636719 C 79.921875 19.875 80.273438 18.867188 80.273438 17.613281 C 80.273438 16.347656 79.921875 15.339844 79.222656 14.589844 C 78.539062 13.828125 77.621094 13.449219 76.46875 13.449219 C 75.300781 13.449219 74.371094 13.820312 73.667969 14.570312 C 72.984375 15.320312 72.640625 16.335938 72.640625 17.613281 C 72.640625 18.882812 72.984375 19.894531 73.667969 20.660156 C 74.371094 21.40625 75.300781 21.78125 76.46875 21.78125 Z M 76.46875 21.78125 " fill-opacity="1" fill-rule="nonzero"/><path fill="#6da82d" d="M 99.949219 10.46875 L 99.949219 24.96875 L 98.503906 24.96875 L 98.503906 13.390625 L 93.417969 24.96875 L 92.363281 24.96875 L 87.273438 13.433594 L 87.273438 24.96875 L 85.828125 24.96875 L 85.828125 10.46875 L 87.359375 10.46875 L 92.878906 23.035156 L 98.398438 10.46875 Z M 99.949219 10.46875 " fill-opacity="1" fill-rule="nonzero"/><path fill="#6da82d" d="M 110.574219 21.480469 L 104 21.480469 L 102.738281 24.96875 L 101.207031 24.96875 L 106.480469 10.46875 L 108.113281 10.46875 L 113.367188 24.96875 L 111.835938 24.96875 Z M 110.140625 20.261719 L 107.285156 12.320312 L 104.433594 20.261719 Z M 110.140625 20.261719 " fill-opacity="1" fill-rule="nonzero"/><path fill="#6da82d" d="M 122.347656 24.96875 L 118.769531 18.832031 L 116.101562 18.832031 L 116.101562 24.96875 L 114.65625 24.96875 L 114.65625 10.28125 L 118.996094 10.28125 C 120.609375 10.28125 121.828125 10.671875 122.65625 11.457031 C 123.496094 12.242188 123.917969 13.273438 123.917969 14.546875 C 123.917969 15.613281 123.613281 16.523438 123.007812 17.277344 C 122.414062 18.019531 121.53125 18.503906 120.363281 18.726562 L 124.082031 24.96875 Z M 116.101562 17.636719 L 119.019531 17.636719 C 120.148438 17.636719 120.996094 17.355469 121.5625 16.796875 C 122.140625 16.234375 122.429688 15.484375 122.429688 14.546875 C 122.429688 13.582031 122.152344 12.835938 121.601562 12.320312 C 121.050781 11.785156 120.183594 11.519531 118.996094 11.519531 L 116.101562 11.519531 Z M 116.101562 17.636719 " fill-opacity="1" fill-rule="nonzero"/><g clip-path="url(#60a02eacb0)"><path fill="#6da82d" d="M 134.214844 10.28125 L 134.214844 11.5 L 130.203125 11.5 L 130.203125 24.96875 L 128.753906 24.96875 L 128.753906 11.5 L 124.722656 11.5 L 124.722656 10.28125 Z M 134.214844 10.28125 " fill-opacity="1" fill-rule="nonzero"/></g><path fill="#2c3c28" d="M 50.355469 13.148438 L 50.355469 16.117188 L 55.089844 16.117188 L 55.089844 18.878906 L 50.355469 18.878906 L 50.355469 22.101562 L 55.710938 22.101562 L 55.710938 24.96875 L 46.824219 24.96875 L 46.824219 10.28125 L 55.710938 10.28125 L 55.710938 13.148438 Z M 50.355469 13.148438 " fill-opacity="1" fill-rule="nonzero"/><path fill="#2c3c28" d="M 65.671875 24.96875 L 60.753906 18.484375 L 60.753906 24.96875 L 57.191406 24.96875 L 57.191406 10.28125 L 60.753906 10.28125 L 60.753906 16.726562 L 65.632812 10.28125 L 69.820312 10.28125 L 64.152344 17.480469 L 70.027344 24.96875 Z M 65.671875 24.96875 " fill-opacity="1" fill-rule="nonzero"/><path fill="#ffffea" d="M 33.96875 23.1875 C 37.242188 14.671875 32.992188 5.113281 24.476562 1.839844 C 15.960938 -1.433594 6.40625 2.8125 3.132812 11.328125 C -0.144531 19.84375 4.105469 29.402344 12.621094 32.675781 C 21.136719 35.949219 30.695312 31.703125 33.96875 23.1875 Z M 33.96875 23.1875 " fill-opacity="1" fill-rule="nonzero"/><path fill="#ffd379" d="M 26.324219 17.257812 C 26.324219 21.550781 22.84375 25.035156 18.546875 25.035156 C 14.253906 25.035156 10.769531 21.554688 10.769531 17.257812 C 10.769531 12.960938 14.25 9.480469 18.546875 9.480469 C 22.84375 9.480469 26.324219 12.960938 26.324219 17.257812 Z M 26.324219 17.257812 " fill-opacity="1" fill-rule="nonzero"/><path fill="#d0db58" d="M 18.550781 25.035156 C 22.84375 25.035156 26.328125 21.554688 26.328125 17.257812 C 26.328125 16.5625 26.230469 15.894531 26.058594 15.257812 C 22.722656 15.875 19.574219 16.761719 16.722656 17.933594 C 14.847656 17.355469 12.863281 16.898438 10.808594 16.550781 C 10.789062 16.785156 10.773438 17.019531 10.773438 17.257812 C 10.773438 21.550781 14.253906 25.035156 18.550781 25.035156 Z M 18.550781 25.035156 " fill-opacity="1" fill-rule="nonzero"/><path stroke-linecap="round" transform="matrix(0.734375, 0, 0, 0.734375, 1.291667, 0.000000979167)" fill="none" stroke-linejoin="round" d="M 34.086881 23.5 C 34.086881 29.345745 29.347519 34.090426 23.496455 34.090426 C 17.65071 34.090426 12.906029 29.351064 12.906029 23.5 C 12.906029 17.648936 17.645391 12.909574 23.496455 12.909574 C 29.347519 12.909574 34.086881 17.648936 34.086881 23.5 Z M 34.086881 23.5 " stroke="#2c3c28" stroke-width="1.5" stroke-opacity="1" stroke-miterlimit="10"/><path fill="#7bab47" d="M 35.050781 16.675781 C 35.042969 16.371094 35.023438 16.066406 34.996094 15.765625 C 22.492188 16.300781 11.226562 20.074219 5.53125 27.421875 C 6.269531 28.367188 7.109375 29.234375 8.035156 30 C 8.957031 30.761719 9.96875 31.421875 11.042969 31.972656 C 12.113281 32.519531 13.25 32.957031 14.4375 33.261719 C 15.632812 33.5625 16.875 33.734375 18.152344 33.765625 C 18.285156 33.765625 18.414062 33.773438 18.546875 33.773438 C 19.816406 33.773438 21.046875 33.628906 22.230469 33.359375 C 23.914062 32.972656 25.503906 32.335938 26.949219 31.480469 C 29.976562 29.6875 32.386719 26.953125 33.769531 23.683594 C 34.074219 22.960938 34.328125 22.210938 34.53125 21.441406 C 34.660156 20.949219 34.765625 20.445312 34.847656 19.933594 C 34.914062 19.53125 34.964844 19.125 35 18.714844 C 35.027344 18.359375 35.046875 18.003906 35.054688 17.644531 C 35.058594 17.515625 35.066406 17.386719 35.066406 17.257812 C 35.066406 17.0625 35.058594 16.871094 35.050781 16.675781 Z M 35.050781 16.675781 " fill-opacity="1" fill-rule="nonzero"/><path fill="#a0c73a" d="M 34.558594 18.402344 C 34.34375 19.234375 34.066406 20.042969 33.738281 20.820312 C 32.246094 24.347656 29.652344 27.292969 26.386719 29.226562 C 24.828125 30.148438 23.117188 30.839844 21.300781 31.25 C 20.023438 31.542969 18.695312 31.699219 17.328125 31.699219 C 17.183594 31.699219 17.042969 31.691406 16.902344 31.691406 C 15.523438 31.65625 14.183594 31.472656 12.898438 31.144531 C 11.617188 30.816406 10.390625 30.34375 9.238281 29.757812 C 8.078125 29.164062 6.992188 28.453125 5.996094 27.632812 C 5.867188 27.527344 5.746094 27.414062 5.621094 27.308594 C 5.59375 27.34375 5.558594 27.382812 5.53125 27.421875 C 6.269531 28.371094 7.109375 29.238281 8.035156 30.003906 C 8.957031 30.765625 9.96875 31.425781 11.042969 31.976562 C 12.113281 32.523438 13.25 32.960938 14.4375 33.261719 C 15.632812 33.566406 16.875 33.738281 18.152344 33.765625 C 18.285156 33.769531 18.414062 33.777344 18.546875 33.777344 C 19.816406 33.777344 21.046875 33.628906 22.230469 33.359375 C 23.914062 32.976562 25.503906 32.335938 26.949219 31.480469 C 29.976562 29.6875 32.386719 26.957031 33.769531 23.6875 C 34.074219 22.964844 34.328125 22.214844 34.53125 21.441406 C 34.660156 20.949219 34.765625 20.445312 34.847656 19.9375 C 34.914062 19.535156 34.964844 19.128906 35 18.71875 C 35.027344 18.363281 35.046875 18.007812 35.054688 17.648438 C 35.058594 17.515625 35.066406 17.390625 35.066406 17.257812 C 35.066406 17.066406 35.058594 16.871094 35.050781 16.679688 C 35.042969 16.445312 35.027344 16.214844 35.007812 15.980469 C 34.976562 16.25 34.945312 16.515625 34.902344 16.78125 C 34.808594 17.328125 34.699219 17.867188 34.558594 18.402344 Z M 34.558594 18.402344 " fill-opacity="1" fill-rule="nonzero"/><path stroke-linecap="round" transform="matrix(0.734375, 0, 0, 0.734375, 1.291667, 0.000000979167)" fill="none" stroke-linejoin="round" d="M 44.225179 32.244681 C 40.432626 35.398936 37.241136 39.19149 34.937945 42.861703 C 39.060285 40.420213 42.3422 36.702128 44.225179 32.244681 Z M 44.225179 32.244681 " stroke="#2c3c28" stroke-width="1.541" stroke-opacity="1" stroke-miterlimit="10"/><path stroke-linecap="round" transform="matrix(0.734375, 0, 0, 0.734375, 1.291667, 0.000000979167)" fill="none" stroke-linejoin="round" d="M 45.900711 25.484042 C 45.937945 25 45.964541 24.515957 45.975179 24.026595 C 31.054966 26.680851 18.304965 34.005319 13.278369 43.531915 C 14.735816 44.281915 16.283689 44.872341 17.90071 45.287235 C 21.985817 36.819149 32.8422 29.015957 45.900711 25.484042 Z M 45.900711 25.484042 " stroke="#2c3c28" stroke-width="1.541" stroke-opacity="1" stroke-miterlimit="10"/><path stroke-linecap="round" transform="matrix(0.734375, 0, 0, 0.734375, 1.291667, 0.000000979167)" fill="none" stroke-linejoin="round" d="M 45.975179 24.026595 C 45.980498 23.851063 45.991137 23.675532 45.991137 23.5 C 45.991137 23.234042 45.980498 22.973404 45.96986 22.707446 C 29.735817 24.398936 15.480497 30.755319 9.182624 40.845745 C 10.437944 41.888298 11.815603 42.787234 13.278369 43.531915 C 18.304965 34.005319 31.054966 26.680851 45.975179 24.026595 Z M 45.975179 24.026595 " stroke="#2c3c28" stroke-width="1.2" stroke-opacity="1" stroke-miterlimit="10"/><path stroke-linecap="round" transform="matrix(0.734375, 0, 0, 0.734375, 1.291667, 0.000000979167)" fill="none" stroke-linejoin="round" d="M 45.96986 22.707446 C 45.959222 22.292553 45.932626 21.877659 45.895392 21.468085 C 28.868796 22.196808 13.528369 27.335106 5.77305 37.340426 C 6.778369 38.62766 7.921986 39.808511 9.182624 40.851064 C 15.480497 30.755319 29.735817 24.393617 45.96986 22.707446 Z M 45.96986 22.707446 " stroke="#2c3c28" stroke-width="1.2" stroke-opacity="1" stroke-miterlimit="10"/><path stroke-linecap="round" transform="matrix(0.734375, 0, 0, 0.734375, 1.291667, 0.000000979167)" fill="none" stroke-linejoin="round" d="M 44.225179 32.244681 C 44.640073 31.260638 44.985817 30.239362 45.262413 29.191489 C 37.741136 33.393617 31.65603 39.696809 28.512413 45.420213 C 30.804966 44.898937 32.96986 44.026596 34.932626 42.861703 C 37.235817 39.19149 40.432626 35.404255 44.225179 32.244681 Z M 44.225179 32.244681 " stroke="#2c3c28" stroke-width="1.2" stroke-opacity="1" stroke-miterlimit="10"/><g clip-path="url(#c26c643ff7)"><path stroke-linecap="round" transform="matrix(0.734375, 0, 0, 0.734375, 1.291667, 0.000000979167)" fill="none" stroke-linejoin="round" d="M 45.262413 29.191489 C 45.437945 28.521276 45.581562 27.835106 45.693264 27.143617 C 35.108157 31.281915 26.491136 38.824468 22.96454 45.973405 C 23.140072 45.978724 23.320923 45.989362 23.501774 45.989362 C 25.225178 45.989362 26.906029 45.787235 28.517732 45.420213 C 31.661349 39.702128 37.741136 33.393617 45.262413 29.191489 Z M 45.262413 29.191489 " stroke="#2c3c28" stroke-width="1.2" stroke-opacity="1" stroke-miterlimit="10"/></g><g clip-path="url(#698201397f)"><path stroke-linecap="round" transform="matrix(0.734375, 0, 0, 0.734375, 1.291667, 0.000000979167)" fill="none" stroke-linejoin="round" d="M 45.693264 27.143617 C 45.78369 26.595744 45.84752 26.042553 45.895392 25.484042 C 32.8422 29.015957 21.980497 36.824468 17.90071 45.292554 C 19.52305 45.702128 21.219859 45.936171 22.959221 45.978724 C 26.491136 38.829788 35.108157 31.281915 45.693264 27.143617 Z M 45.693264 27.143617 " stroke="#2c3c28" stroke-width="1.2" stroke-opacity="1" stroke-miterlimit="10"/></g><path fill="#a0c73a" d="M 2.03125 17.234375 C 2.03125 17.242188 2.03125 17.25 2.03125 17.257812 C 2.03125 17.496094 2.039062 17.734375 2.046875 17.972656 C 2.058594 18.234375 2.078125 18.492188 2.101562 18.753906 C 2.125 19.035156 2.160156 19.320312 2.199219 19.597656 C 2.242188 19.917969 2.296875 20.238281 2.359375 20.550781 C 2.4375 20.941406 2.535156 21.320312 2.640625 21.699219 C 2.789062 22.234375 2.964844 22.761719 3.164062 23.273438 C 4.652344 27.070312 7.5 30.179688 11.113281 32.003906 C 12.378906 32.644531 13.738281 33.128906 15.164062 33.421875 C 16.257812 33.652344 17.390625 33.773438 18.550781 33.773438 C 18.632812 33.773438 18.710938 33.765625 18.792969 33.765625 C 23.441406 33.699219 27.621094 31.714844 30.582031 28.566406 C 25.476562 21.132812 14.308594 17.476562 2.03125 17.234375 Z M 2.03125 17.234375 " fill-opacity="1" fill-rule="nonzero"/><path fill="#d0db58" d="M 20.523438 31.480469 C 19.1875 31.480469 17.882812 31.339844 16.625 31.078125 C 14.980469 30.734375 13.414062 30.175781 11.953125 29.441406 C 7.792969 27.335938 4.511719 23.753906 2.796875 19.382812 C 2.566406 18.792969 2.363281 18.1875 2.195312 17.570312 C 2.164062 17.460938 2.136719 17.347656 2.105469 17.238281 C 2.082031 17.238281 2.054688 17.234375 2.03125 17.234375 C 2.03125 17.242188 2.03125 17.25 2.03125 17.257812 C 2.03125 17.496094 2.039062 17.734375 2.046875 17.972656 C 2.058594 18.234375 2.078125 18.492188 2.101562 18.753906 C 2.125 19.035156 2.160156 19.320312 2.199219 19.597656 C 2.242188 19.917969 2.296875 20.238281 2.359375 20.550781 C 2.4375 20.941406 2.535156 21.320312 2.640625 21.699219 C 2.789062 22.234375 2.964844 22.761719 3.164062 23.273438 C 4.652344 27.070312 7.5 30.179688 11.113281 32.003906 C 12.378906 32.644531 13.738281 33.128906 15.164062 33.421875 C 16.257812 33.652344 17.390625 33.773438 18.550781 33.773438 C 18.632812 33.773438 18.710938 33.765625 18.792969 33.765625 C 23.40625 33.699219 27.558594 31.742188 30.515625 28.632812 C 27.6875 30.382812 24.367188 31.417969 20.804688 31.472656 C 20.710938 31.472656 20.617188 31.480469 20.523438 31.480469 Z M 20.523438 31.480469 " fill-opacity="1" fill-rule="nonzero"/><path stroke-linecap="round" transform="matrix(0.734375, 0, 0, 0.734375, 1.291667, 0.000000979167)" fill="none" stroke-linejoin="round" d="M 1.83688 29.547872 C 2.039007 30.281915 2.278369 30.994681 2.549645 31.691489 C 7.129433 34.989362 10.916667 39.414894 13.374114 43.579788 C 15.097518 44.452128 16.948582 45.111703 18.890072 45.515958 C 15.916667 39.819149 9.608156 33.37766 1.83688 29.547872 Z M 1.83688 29.547872 " stroke="#2c3c28" stroke-width="1.541" stroke-opacity="1" stroke-miterlimit="10"/><path stroke-linecap="round" transform="matrix(0.734375, 0, 0, 0.734375, 1.291667, 0.000000979167)" fill="none" stroke-linejoin="round" d="M 2.549645 31.691489 C 4.576241 36.861702 8.453901 41.095745 13.374114 43.579788 C 10.916667 39.414894 7.129433 34.989362 2.549645 31.691489 Z M 2.549645 31.691489 " stroke="#2c3c28" stroke-width="1.2" stroke-opacity="1" stroke-miterlimit="10"/><g clip-path="url(#16a6179527)"><path stroke-linecap="round" transform="matrix(0.734375, 0, 0, 0.734375, 1.291667, 0.000000979167)" fill="none" stroke-linejoin="round" d="M 1.45922 27.989362 C 1.560284 28.515957 1.698582 29.037234 1.842199 29.547872 C 9.613476 33.382979 15.921986 39.819149 18.895391 45.515958 C 20.384753 45.829788 21.921987 45.989362 23.501774 45.989362 C 23.613476 45.989362 23.725178 45.984043 23.83688 45.984043 C 20.624114 39.042553 11.980497 31.595745 1.45922 27.989362 Z M 1.45922 27.989362 " stroke="#2c3c28" stroke-width="1.2" stroke-opacity="1" stroke-miterlimit="10"/></g><g clip-path="url(#5050d7ee67)"><path stroke-linecap="round" transform="matrix(0.734375, 0, 0, 0.734375, 1.291667, 0.000000979167)" fill="none" stroke-linejoin="round" d="M 1.028369 24.473404 C 1.017731 24.148936 1.007092 23.824468 1.007092 23.5 C 1.007092 23.489361 1.007092 23.478723 1.007092 23.468085 C 17.725178 23.797872 32.932625 28.776596 39.884753 38.898936 C 35.852838 43.186171 30.161349 45.888298 23.831561 45.978724 C 20.618795 39.042553 11.980497 31.595745 1.453901 27.984042 C 1.368794 27.55851 1.294326 27.12234 1.235816 26.68617 M 1.028369 24.473404 C 16.751774 25.696808 30.725179 31.744681 36.40603 41.590426 C 30.730498 31.744681 16.751774 25.696808 1.028369 24.473404 Z M 1.028369 24.473404 C 1.044326 24.829787 1.070922 25.180851 1.102837 25.537234 M 1.102837 25.537234 C 15.352838 27.638298 27.71454 34.462766 32.390072 43.468086 C 27.71454 34.457447 15.358157 27.632979 1.102837 25.537234 Z M 1.102837 25.537234 C 1.134752 25.920213 1.182624 26.30851 1.235816 26.68617 M 1.235816 26.68617 C 13.969859 29.654255 24.687944 37.19149 28.374115 45.340426 " stroke="#2c3c28" stroke-width="1.2" stroke-opacity="1" stroke-miterlimit="10"/></g><g clip-path="url(#aaffa1fd81)"><path stroke-linecap="round" transform="matrix(0.734375, 0, 0, 0.734375, 1.291667, 0.000000979167)" fill="none" stroke-linejoin="round" d="M 44.496456 31.574468 C 48.953903 19.978723 43.166668 6.962765 31.570923 2.505318 C 19.975178 -1.952129 6.964539 3.829786 2.507092 15.425531 C -1.955674 27.021276 3.83156 40.037234 15.427306 44.494681 C 27.023051 48.952128 40.039009 43.170213 44.496456 31.574468 Z M 44.496456 31.574468 " stroke="#2c3c28" stroke-width="1.5" stroke-opacity="1" stroke-miterlimit="10"/></g><g clip-path="url(#32024ad126)"><g transform="matrix(1, 0, 0, 1, 43, -0.00000000000000115)"><g clip-path="url(#fa43ccc575)"><g clip-path="url(#6a7eae9a8d)"><path fill="#ffffff" d="M 0.921875 0 L 91.257812 0 L 91.257812 34.515625 L 0.921875 34.515625 Z M 0.921875 0 " fill-opacity="1" fill-rule="nonzero"/></g></g></g></g><g fill="#004aad" fill-opacity="1"><g transform="translate(45.229302, 23.749502)"><g><path d="M 8.03125 -13.84375 L 13.625 0 L 10.234375 0 L 9.21875 -2.765625 L 3.9375 -2.765625 L 2.921875 0 L -0.46875 0 L 5.125 -13.84375 Z M 8.140625 -5.53125 L 6.59375 -9.5625 L 6.5625 -9.5625 L 5.015625 -5.53125 Z M 8.140625 -5.53125 "/></g></g></g><g fill="#004aad" fill-opacity="1"><g transform="translate(58.054811, 23.749502)"><g><path d="M 6.109375 -14.09375 C 6.859375 -14.09375 7.585938 -13.984375 8.296875 -13.765625 C 9.015625 -13.546875 9.550781 -13.332031 9.90625 -13.125 L 10.40625 -12.78125 L 9.125 -10.265625 C 9.03125 -10.335938 8.890625 -10.425781 8.703125 -10.53125 C 8.523438 -10.632812 8.191406 -10.773438 7.703125 -10.953125 C 7.210938 -11.140625 6.753906 -11.234375 6.328125 -11.234375 C 5.796875 -11.234375 5.390625 -11.117188 5.109375 -10.890625 C 4.828125 -10.671875 4.6875 -10.367188 4.6875 -9.984375 C 4.6875 -9.796875 4.75 -9.617188 4.875 -9.453125 C 5.007812 -9.296875 5.238281 -9.125 5.5625 -8.9375 C 5.894531 -8.75 6.179688 -8.597656 6.421875 -8.484375 C 6.671875 -8.378906 7.050781 -8.210938 7.5625 -7.984375 C 8.457031 -7.609375 9.222656 -7.09375 9.859375 -6.4375 C 10.492188 -5.78125 10.8125 -5.039062 10.8125 -4.21875 C 10.8125 -3.414062 10.664062 -2.71875 10.375 -2.125 C 10.09375 -1.53125 9.703125 -1.066406 9.203125 -0.734375 C 8.703125 -0.398438 8.148438 -0.15625 7.546875 0 C 6.941406 0.164062 6.289062 0.25 5.59375 0.25 C 4.988281 0.25 4.394531 0.1875 3.8125 0.0625 C 3.226562 -0.0625 2.738281 -0.210938 2.34375 -0.390625 C 1.957031 -0.578125 1.609375 -0.757812 1.296875 -0.9375 C 0.984375 -1.113281 0.753906 -1.265625 0.609375 -1.390625 L 0.390625 -1.578125 L 1.96875 -4.234375 C 2.101562 -4.117188 2.285156 -3.972656 2.515625 -3.796875 C 2.753906 -3.628906 3.171875 -3.398438 3.765625 -3.109375 C 4.367188 -2.816406 4.898438 -2.671875 5.359375 -2.671875 C 6.679688 -2.671875 7.34375 -3.125 7.34375 -4.03125 C 7.34375 -4.21875 7.296875 -4.390625 7.203125 -4.546875 C 7.109375 -4.710938 6.941406 -4.875 6.703125 -5.03125 C 6.460938 -5.195312 6.25 -5.328125 6.0625 -5.421875 C 5.882812 -5.523438 5.582031 -5.671875 5.15625 -5.859375 C 4.738281 -6.054688 4.429688 -6.207031 4.234375 -6.3125 C 3.390625 -6.726562 2.738281 -7.242188 2.28125 -7.859375 C 1.820312 -8.484375 1.59375 -9.15625 1.59375 -9.875 C 1.59375 -11.113281 2.050781 -12.125 2.96875 -12.90625 C 3.882812 -13.695312 4.929688 -14.09375 6.109375 -14.09375 Z M 6.109375 -14.09375 "/></g></g></g><g fill="#004aad" fill-opacity="1"><g transform="translate(69.335898, 23.749502)"><g><path d="M 8.03125 -13.84375 L 13.625 0 L 10.234375 0 L 9.21875 -2.765625 L 3.9375 -2.765625 L 2.921875 0 L -0.46875 0 L 5.125 -13.84375 Z M 8.140625 -5.53125 L 6.59375 -9.5625 L 6.5625 -9.5625 L 5.015625 -5.53125 Z M 8.140625 -5.53125 "/></g></g></g><g fill="#ff3131" fill-opacity="1"><g transform="translate(82.498832, 23.749502)"><g><path d="M 12.453125 0 L 11.796875 -8.203125 L 11.71875 -8.203125 L 8.875 -0.078125 L 7 -0.078125 L 4.15625 -8.203125 L 4.078125 -8.203125 L 3.421875 0 L 0.265625 0 L 1.515625 -13.84375 L 4.859375 -13.84375 L 7.9375 -5.859375 L 11.015625 -13.84375 L 14.359375 -13.84375 L 15.609375 0 Z M 12.453125 0 "/></g></g></g><g fill="#ff3131" fill-opacity="1"><g transform="translate(98.379635, 23.749502)"><g><path d="M 8.03125 -13.84375 L 13.625 0 L 10.234375 0 L 9.21875 -2.765625 L 3.9375 -2.765625 L 2.921875 0 L -0.46875 0 L 5.125 -13.84375 Z M 8.140625 -5.53125 L 6.59375 -9.5625 L 6.5625 -9.5625 L 5.015625 -5.53125 Z M 8.140625 -5.53125 "/></g></g></g><g fill="#ff3131" fill-opacity="1"><g transform="translate(111.540899, 23.749502)"><g><path d="M 1 -13.84375 L 5.953125 -13.84375 C 7.285156 -13.84375 8.367188 -13.488281 9.203125 -12.78125 C 10.046875 -12.070312 10.46875 -11.054688 10.46875 -9.734375 C 10.46875 -8.710938 10.210938 -7.859375 9.703125 -7.171875 C 9.191406 -6.484375 8.503906 -6 7.640625 -5.71875 L 12.40625 0 L 8.390625 0 L 4.15625 -5.46875 L 4.15625 0 L 1 0 Z M 4.15625 -7.703125 L 4.53125 -7.703125 C 4.820312 -7.703125 5.066406 -7.707031 5.265625 -7.71875 C 5.472656 -7.726562 5.703125 -7.765625 5.953125 -7.828125 C 6.210938 -7.898438 6.421875 -8 6.578125 -8.125 C 6.734375 -8.25 6.867188 -8.425781 6.984375 -8.65625 C 7.097656 -8.894531 7.15625 -9.179688 7.15625 -9.515625 C 7.15625 -9.847656 7.097656 -10.128906 6.984375 -10.359375 C 6.867188 -10.597656 6.734375 -10.78125 6.578125 -10.90625 C 6.421875 -11.03125 6.210938 -11.125 5.953125 -11.1875 C 5.703125 -11.257812 5.472656 -11.300781 5.265625 -11.3125 C 5.066406 -11.320312 4.820312 -11.328125 4.53125 -11.328125 L 4.15625 -11.328125 Z M 4.15625 -7.703125 "/></g></g></g><g fill="#ff3131" fill-opacity="1"><g transform="translate(122.889108, 23.749502)"><g><path d="M 0.140625 -11.078125 L 0.140625 -13.84375 L 9.875 -13.84375 L 9.875 -11.078125 L 6.578125 -11.078125 L 6.578125 0 L 3.421875 0 L 3.421875 -11.078125 Z M 0.140625 -11.078125 "/></g></g></g></svg>